<svg width="31" height="30" viewBox="0 0 31 30" fill="none" xmlns="http://www.w3.org/2000/svg">
<rect x="0.5" width="30" height="30" rx="10" fill="#FF2D55"/>
<path d="M19.084 11.9688C20.6528 11.9688 21.9644 10.6738 21.9644 9.09668C21.9644 7.51123 20.6528 6.21631 19.084 6.21631C17.4985 6.21631 16.2036 7.51123 16.2036 9.09668C16.2036 10.6738 17.4985 11.9688 19.084 11.9688ZM8.41748 20.4189H21.5742C22.3545 20.4189 22.8276 20.0205 22.8276 19.4146C22.8276 18.5845 21.981 17.8374 21.2671 17.0986C20.7192 16.5259 20.5698 15.3472 20.5034 14.3926C20.4951 13.853 20.4619 13.3384 20.4121 12.8486C19.9971 13.0146 19.5488 13.106 19.0757 13.106C16.876 13.106 15.0664 11.2964 15.0664 9.09668C15.0664 8.10889 15.4316 7.2041 16.021 6.50684C15.7222 6.35742 15.3735 6.27441 14.9917 6.27441C13.7715 6.27441 12.9082 7.12939 12.6011 8.2168C10.3931 9.01367 9.54639 11.2051 9.48828 14.3926C9.42188 15.3472 9.27246 16.5259 8.72461 17.0986C8.00244 17.8374 7.16406 18.5845 7.16406 19.4146C7.16406 20.0205 7.62891 20.4189 8.41748 20.4189ZM14.9917 23.7476C16.4028 23.7476 17.4321 22.7183 17.54 21.5562H12.4517C12.5596 22.7183 13.5889 23.7476 14.9917 23.7476Z" fill="white"/>
</svg>
