<svg width="8" height="13" viewBox="0 0 8 13" fill="none" xmlns="http://www.w3.org/2000/svg">
<path d="M0.500211 6.50342C0.500211 6.78397 0.602852 7.01663 0.821819 7.23559L6.09072 12.3882C6.26863 12.5661 6.48076 12.6482 6.73394 12.6482C7.24714 12.6482 7.66455 12.2445 7.66455 11.7313C7.66455 11.4781 7.55507 11.2454 7.37031 11.0607L2.68989 6.51026L7.37031 1.94616C7.55507 1.76141 7.66455 1.5356 7.66455 1.27558C7.66455 0.762371 7.24714 0.351807 6.73394 0.351807C6.48076 0.351807 6.26863 0.440763 6.09072 0.618673L0.821819 5.77125C0.596009 5.99022 0.500211 6.22287 0.500211 6.50342Z" fill="#3C3C43" fill-opacity="0.3"/>
</svg>
