<svg width="90" height="32" viewBox="0 0 90 32" fill="none" xmlns="http://www.w3.org/2000/svg">
<path d="M24.4303 10.5678C23.4169 11.188 22.5774 12.0552 21.9904 13.0882C21.4035 14.1213 21.0882 15.2864 21.0742 16.4744C21.0782 17.8115 21.4744 19.1181 22.2136 20.2323C22.9528 21.3465 24.0027 22.2193 25.2331 22.7428C24.748 24.3079 24.0301 25.7911 23.1034 27.1425C21.7775 29.0511 20.3912 30.9598 18.2817 30.9598C16.1722 30.9598 15.6297 29.7342 13.1987 29.7342C10.8277 29.7342 9.9842 31 8.05605 31C6.1279 31 4.78164 29.232 3.23468 27.0622C1.19104 24.0226 0.0678895 20.4579 0 16.7958C0 10.7683 3.91774 7.57418 7.77505 7.57418C9.82441 7.57418 11.5318 8.92028 12.8175 8.92028C14.043 8.92028 15.9517 7.49387 18.2822 7.49387C19.4805 7.46285 20.668 7.727 21.7401 8.26304C22.8123 8.79908 23.7361 9.59056 24.4303 10.5678ZM12.9786 7.15225C12.837 7.15183 12.6958 7.13841 12.5567 7.11218C12.5174 6.92718 12.4972 6.73863 12.4964 6.5495C12.5635 4.99459 13.1669 3.51089 14.2042 2.35058C15.3683 1.01334 17.0001 0.172299 18.7647 0C18.8067 0.204901 18.8269 0.413653 18.825 0.622792C18.7867 2.20879 18.2051 3.73358 17.1775 4.94226C16.664 5.57599 16.0269 6.0987 15.3051 6.47861C14.5833 6.85852 13.7918 7.08771 12.9786 7.15225Z" fill="black"/>
<path d="M32.5207 26L37.7207 11.4H40.4607L45.6607 26H42.8207L41.9207 23.4H36.2607L35.3607 26H32.5207ZM39.1007 15.26L37.1807 20.8H41.0207L39.1007 15.26ZM53.1335 26.24C51.5335 26.24 50.1335 25.66 49.3135 24.62V31.38H46.6335V14.3H49.3135V15.86C50.1335 14.76 51.5135 14.06 53.1135 14.06C56.0535 14.06 58.8735 16.28 58.8735 20.16C58.8735 24 55.9535 26.24 53.1335 26.24ZM52.6935 23.76C54.6735 23.76 56.2135 22.16 56.2135 20.12C56.2135 18.1 54.6735 16.52 52.6935 16.52C50.6735 16.52 49.2135 18.12 49.2135 20.12C49.2135 22.14 50.6735 23.76 52.6935 23.76ZM66.4929 26.24C64.8929 26.24 63.4929 25.66 62.6729 24.62V31.38H59.9929V14.3H62.6729V15.86C63.4929 14.76 64.8729 14.06 66.4729 14.06C69.4129 14.06 72.2329 16.28 72.2329 20.16C72.2329 24 69.3129 26.24 66.4929 26.24ZM66.0529 23.76C68.0329 23.76 69.5729 22.16 69.5729 20.12C69.5729 18.1 68.0329 16.52 66.0529 16.52C64.0329 16.52 62.5729 18.12 62.5729 20.12C62.5729 22.14 64.0329 23.76 66.0529 23.76ZM73.3523 26V11.2H76.0723V26H73.3523ZM83.4296 26.24C79.7496 26.24 77.2496 23.56 77.2496 20.18C77.2496 16.76 79.9096 14.06 83.3296 14.06C86.8096 14.06 89.3496 16.62 89.3496 20.08V21.1H79.8296C80.2096 22.76 81.5096 23.86 83.4296 23.86C84.9496 23.86 86.1096 23.06 86.6696 21.8L88.8896 23.08C87.8696 24.98 86.0696 26.24 83.4296 26.24ZM83.3296 16.44C81.7096 16.44 80.4496 17.4 79.9696 18.84H86.6096C86.2096 17.26 85.0096 16.44 83.3296 16.44Z" fill="black" fill-opacity="0.6"/>
</svg>
