<svg width="94" height="16" viewBox="0 0 94 16" fill="none" xmlns="http://www.w3.org/2000/svg">
<path d="M6.05102 15.2C3.43102 15.2 1.69102 14.08 0.351016 12.58L2.83102 10.62C3.57102 11.9 4.69102 12.6 6.03102 12.6C7.47102 12.6 8.25102 11.66 8.25102 10.64C8.25102 9.42 6.75102 9.02 5.21102 8.54C3.23102 7.9 1.07102 7.16 1.07102 4.38C1.07102 2.04 3.11102 0.2 5.91102 0.2C8.25102 0.2 9.63102 1.1 10.811 2.32L8.57102 4.02C7.95102 3.08 7.07102 2.62 5.93102 2.62C4.59102 2.62 3.89102 3.34 3.89102 4.28C3.89102 5.46 5.27102 5.8 6.87102 6.34C8.85102 6.98 11.091 7.86 11.091 10.66C11.091 12.96 9.25102 15.2 6.05102 15.2ZM11.4699 15L16.6699 0.4H19.4099L24.6099 15H21.7699L20.8699 12.4H15.2099L14.3099 15H11.4699ZM18.0499 4.26L16.1299 9.8H19.9699L18.0499 4.26ZM25.7404 15V0.4H28.4404L32.8604 6.54L37.4604 0.4H40.0404V15H37.3204V4.76L32.8404 10.8L28.4604 4.86V15H25.7404ZM46.6174 15.2C43.9974 15.2 42.2574 14.08 40.9174 12.58L43.3974 10.62C44.1374 11.9 45.2574 12.6 46.5974 12.6C48.0374 12.6 48.8174 11.66 48.8174 10.64C48.8174 9.42 47.3174 9.02 45.7774 8.54C43.7974 7.9 41.6374 7.16 41.6374 4.38C41.6374 2.04 43.6774 0.2 46.4774 0.2C48.8174 0.2 50.1974 1.1 51.3774 2.32L49.1374 4.02C48.5174 3.08 47.6374 2.62 46.4974 2.62C45.1574 2.62 44.4574 3.34 44.4574 4.28C44.4574 5.46 45.8374 5.8 47.4374 6.34C49.4174 6.98 51.6574 7.86 51.6574 10.66C51.6574 12.96 49.8174 15.2 46.6174 15.2ZM58.207 15.2C55.167 15.2 52.947 13.38 52.947 9.96V0.4H55.667V10.12C55.667 11.56 56.747 12.68 58.187 12.68C59.607 12.68 60.747 11.56 60.747 10.12V0.4H63.467V9.96C63.467 13.38 61.227 15.2 58.207 15.2ZM65.1349 15V0.4H68.2149L74.5349 10.34V0.4H77.2549V15H74.3549L67.8549 4.74V15H65.1349ZM86.1235 15.2C81.5635 15.2 78.5435 11.76 78.5435 7.7C78.5435 3.54 81.6835 0.2 86.0035 0.2C89.0235 0.2 91.4035 1.74 92.6435 3.94L90.2435 5.38C89.3235 3.68 87.9235 2.84 86.0235 2.84C83.3035 2.84 81.2435 5.06 81.2435 7.7C81.2435 10.4 83.2835 12.56 86.1235 12.56C88.3435 12.56 89.8035 11.32 90.3435 9.4H85.6835V6.8H93.2635V7.88C93.2635 11.82 90.5035 15.2 86.1235 15.2Z" fill="#0661F8"/>
</svg>
