<svg width="113" height="19" viewBox="0 0 113 19" fill="none" xmlns="http://www.w3.org/2000/svg">
<path d="M85.9492 1.06241V3.17355H88.1077C89.0499 3.17355 89.6692 3.74159 90.0218 4.10848C90.3045 4.41067 96.5195 11.1429 96.6683 11.3198C96.8178 11.497 96.8178 11.4989 96.8178 11.6115V14.9473C96.8174 15.1002 96.8014 15.2528 96.7701 15.4028C96.7259 15.4996 96.6602 15.5861 96.5775 15.6562C96.4948 15.7264 96.3972 15.7785 96.2913 15.8089C96.0873 15.8333 95.8819 15.8456 95.6763 15.8456L93.5159 15.843V17.9545H105.634V15.843H103.353C103.149 15.844 102.945 15.8317 102.743 15.806C102.637 15.7759 102.54 15.7239 102.457 15.6538C102.375 15.5837 102.31 15.4971 102.266 15.4003C102.235 15.2503 102.218 15.0977 102.217 14.9447V11.6108C102.204 11.5013 102.232 11.3908 102.298 11.3L109.021 3.97237C109.639 3.31573 109.96 3.17324 110.769 3.17324H112.999V1.06177H103.012V3.16878H104.52C104.6 3.16411 104.681 3.1817 104.752 3.21948C104.822 3.25726 104.88 3.31363 104.918 3.38188C104.956 3.45014 104.973 3.52742 104.967 3.60452C104.96 3.68163 104.93 3.75531 104.881 3.81681C104.85 3.85985 100.7 8.5214 100.648 8.56666C100.596 8.61193 100.563 8.60109 100.524 8.55168C100.486 8.50195 96.386 3.81681 96.386 3.81681C96.0968 3.47765 96.3226 3.1691 96.662 3.1691H98.1307V1.06209L85.9492 1.06241Z" fill="#0F0F0F"/>
<path d="M56.2285 1.0625V3.17365H58.1627C59.5594 3.17365 59.6545 3.91668 59.6545 4.5644V14.4466C59.6545 15.0379 59.6906 15.8498 58.8004 15.8498H56.4134V17.959H66.604V15.8498H64.1182C63.1259 15.8498 63.0805 15.4163 63.0695 14.4941V6.02815L77.0655 17.9593H80.6249L80.4371 4.48439C80.4554 3.49974 80.5185 3.17174 81.5852 3.17174H83.8157V1.0625H73.4199V3.17174H75.7028C76.7515 3.17174 76.9273 3.55807 76.9407 4.48439L77.0655 11.536L64.9156 1.0625H56.2285Z" fill="#0F0F0F"/>
<path d="M10.3394 0C8.14961 0 5.66154 0.39303 3.55949 1.29544C1.59758 2.13314 1.44444e-05 3.47832 1.44444e-05 5.70837C-0.00298747 6.87645 0.462017 8.00135 1.29962 8.85229C1.86684 9.35306 2.78206 10.2038 5.17339 10.7046C6.24209 10.9207 8.52699 11.2682 10.8029 11.497C13.0784 11.7259 15.2846 11.929 16.1881 12.1601C16.9071 12.3348 18.116 12.5725 18.116 13.868C18.116 15.1634 16.8437 15.5517 16.6222 15.6362C16.401 15.7203 14.8728 16.3897 12.1292 16.3897C10.3114 16.3414 8.51016 16.0455 6.77995 15.5109C5.75629 15.1609 4.68291 14.7012 3.6816 13.533C3.27749 12.983 3.05328 12.3308 3.03731 11.659H0.551556V18.309H3.31324V17.4088C3.31285 17.342 3.33108 17.2764 3.36606 17.2186C3.40104 17.1608 3.45151 17.1129 3.51226 17.08C3.57302 17.047 3.64189 17.0301 3.71176 17.0309C3.78163 17.0318 3.84999 17.0504 3.90983 17.0849C5.21087 17.6258 6.56418 18.0438 7.95042 18.3329C9.4015 18.622 10.3394 18.8317 12.1428 18.8317C14.0458 18.8662 15.9424 18.6103 17.761 18.0737C18.9686 17.7574 20.1016 17.2231 21.0989 16.4997C21.6598 16.0881 22.1131 15.5578 22.4233 14.9506C22.7335 14.3434 22.8921 13.6757 22.8866 13C22.8963 11.7162 22.3778 10.4802 21.4429 9.55803C20.9229 9.07609 20.3206 8.6826 19.6618 8.39456C18.9537 8.08893 18.2185 7.844 17.465 7.66268C16.0323 7.32798 12.8142 6.90914 11.2753 6.76219C9.66143 6.60281 6.86103 6.37999 5.7426 6.04975C5.40361 5.94807 4.71194 5.63537 4.71194 4.86875C4.71194 4.32271 5.02824 3.8605 5.65218 3.48692C6.64415 2.89339 8.64676 2.52394 10.7348 2.52394C12.7561 2.50054 14.7609 2.87455 16.6245 3.62272C17.1252 3.83119 17.596 4.09973 18.0256 4.42185C18.7259 4.99335 19.2109 5.76839 19.4062 6.6283H21.6371V0.839936H19.1513V1.51124C19.1513 1.72736 18.9251 2.01234 18.473 1.77709C17.3519 1.2199 14.2018 0.0153005 10.3394 0Z" fill="#0F0F0F"/>
<path d="M40.2576 0.00170898C36.3411 0.00170898 32.1824 1.29715 29.8321 3.33721C28.9361 4.11662 28.2208 5.06662 27.7323 6.12607C27.2437 7.18553 26.9928 8.33096 26.9957 9.48865C26.9817 10.6511 27.2274 11.803 27.7164 12.8675C28.2055 13.9319 28.9267 14.8845 29.8318 15.6614C32.3632 17.8354 36.1603 19.0014 40.2576 19.0014C44.3616 19.0014 48.2397 17.8485 50.7101 15.6614C51.5884 14.8662 52.289 13.9093 52.7698 12.8485C53.2506 11.7876 53.5015 10.6447 53.5075 9.48865C53.5196 8.33381 53.2768 7.18951 52.7948 6.13039C52.3128 5.07128 51.6024 4.12115 50.7101 3.342C48.0589 1.04469 44.5898 0.00170898 40.2576 0.00170898ZM40.2576 2.47147C42.4 2.47147 44.4634 3.2078 45.853 4.5144C47.1977 5.77956 47.9004 7.56717 47.9004 9.48005C47.9004 11.4838 47.2611 13.1075 45.8534 14.446C44.4453 15.7848 42.4294 16.5014 40.2576 16.5014C38.1015 16.5014 36.0425 15.7695 34.6528 14.446C33.9881 13.7871 33.4662 13.0092 33.1171 12.1569C32.768 11.3047 32.5987 10.395 32.6188 9.48005C32.6188 7.57578 33.3125 5.78179 34.6528 4.5144C36.0425 3.20143 38.1152 2.47147 40.2576 2.47147Z" fill="#0F0F0F"/>
</svg>
