<svg width="61" height="61" viewBox="0 0 61 61" fill="none" xmlns="http://www.w3.org/2000/svg">
<g clip-path="url(#clip0_257_46295)">
<path fill-rule="evenodd" clip-rule="evenodd" d="M3.27314 32.2235C3.55674 32.4244 3.86396 32.578 4.19482 32.6843C4.84473 32.8852 5.54189 32.8852 6.1918 32.6843C6.52266 32.578 6.82988 32.4244 7.11348 32.2235C7.39707 32.0226 7.64522 31.7745 7.85791 31.4909C8.25967 30.9355 8.48418 30.262 8.47236 29.5766C8.47236 29.2339 8.4251 28.9031 8.31875 28.5722C8.10606 27.8987 7.68066 27.3197 7.11348 26.9061C6.82988 26.7052 6.52266 26.5516 6.1918 26.4453C5.54189 26.2326 4.83291 26.2326 4.18301 26.4453C3.50947 26.658 2.93047 27.0833 2.52871 27.6505C2.32783 27.9341 2.17422 28.2414 2.06787 28.5722C1.96152 28.9031 1.91426 29.2339 1.91426 29.5766C1.91426 29.9193 1.96152 30.2501 2.06787 30.5692C2.28057 31.2309 2.70596 31.8099 3.27314 32.2235ZM10.3866 13.4827H0L5.21103 25.2754L10.3866 13.4827Z" fill="#F26522"/>
<path fill-rule="evenodd" clip-rule="evenodd" d="M13.6832 41.9129C13.6832 42.2319 13.6241 42.551 13.4941 42.8464C13.246 43.449 12.7733 43.9217 12.1707 44.1698C11.8753 44.288 11.5562 44.3589 11.2372 44.3589H10.7527C10.4337 44.3589 10.1146 44.2998 9.81924 44.1698C9.2166 43.9217 8.74395 43.449 8.4958 42.8464C8.37764 42.551 8.30674 42.2319 8.30674 41.9129V36.3828L2.68213 36.371V40.5422C2.68213 41.393 2.84756 42.2438 3.17842 43.0236C3.50928 43.8153 3.98193 44.5243 4.58457 45.127C5.18721 45.7296 5.89619 46.2022 6.68789 46.5331C7.47959 46.864 8.31855 47.0294 9.16934 47.0294H12.6434C13.4941 47.0294 14.3449 46.864 15.1248 46.5331C15.9165 46.2022 16.6255 45.7296 17.2281 45.127C17.8308 44.5243 18.3034 43.8035 18.6343 43.0236C18.9651 42.2319 19.1306 41.393 19.1306 40.5422V13.5063L13.6714 13.5181L13.6832 41.9129ZM55.2533 36.3828V41.2866C55.2533 41.6057 55.1942 41.9247 55.0643 42.2201C54.9461 42.5155 54.757 42.7873 54.5325 43.0118C54.308 43.2363 54.0362 43.4136 53.7408 43.5436C53.4454 43.6617 53.1264 43.7326 52.8073 43.7326H52.311C51.992 43.7326 51.673 43.6735 51.3775 43.5436C51.0821 43.4254 50.8104 43.2363 50.5858 43.0118C50.3613 42.7873 50.1841 42.5155 50.0541 42.2201C49.9241 41.9247 49.865 41.6057 49.865 41.2866V13.5063L44.4059 13.4944V46.3322H60.4762V36.371L55.2533 36.3828ZM39.8802 31.4672C39.6084 30.8291 39.2185 30.2501 38.7222 29.7656C38.2613 29.3048 37.706 28.9621 37.1033 28.7376C37.6114 28.5013 38.0723 28.1704 38.474 27.7923C38.8876 27.4023 39.2539 26.9415 39.4902 26.4098C39.7384 25.878 39.8684 25.3108 39.8684 24.72V18.7409C39.8684 18.0556 39.7266 17.3584 39.4666 16.7203C39.2066 16.0822 38.8167 15.5032 38.3204 15.0069C37.8359 14.5225 37.2451 14.1325 36.6188 13.8607C35.9808 13.6008 35.2954 13.459 34.5982 13.459H23.7508V46.3322H35.0118C37.1388 46.3322 39.0648 45.0442 39.8802 43.0827C40.1401 42.4446 40.2819 41.7593 40.2819 41.0621C40.2819 38.5452 40.2701 36.0283 40.2819 33.4996C40.2938 32.8024 40.152 32.1053 39.8802 31.4672ZM29.0563 16.2949L31.9159 16.2831C32.5658 16.2831 33.1803 16.5431 33.6411 16.9921C33.8656 17.2166 34.0429 17.4884 34.1729 17.7838C34.291 18.0792 34.3619 18.3982 34.3619 18.7173L34.3737 25.3108C34.3737 26.1262 33.8774 26.8706 33.1212 27.1778C32.873 27.2842 32.6131 27.3314 32.3413 27.3314L29.0563 27.3433V16.2949ZM34.4092 42.0783C34.2083 42.5746 33.8065 42.9646 33.3103 43.1772C33.0621 43.2836 32.8021 43.3309 32.5304 43.3309L29.0445 43.3427V30.3092L32.105 30.2974C32.7549 30.2974 33.3693 30.5573 33.8302 31.0063C34.0547 31.2309 34.2319 31.5026 34.3619 31.798C34.4801 32.0935 34.551 32.4125 34.551 32.7315L34.5628 41.2984C34.5628 41.5702 34.5155 41.8302 34.4092 42.0783Z" fill="#F26522"/>
</g>
<defs>
<clipPath id="clip0_257_46295">
<rect width="60.5" height="60.5" fill="white"/>
</clipPath>
</defs>
</svg>
