<svg width="101" height="29" viewBox="0 0 101 29" fill="none" xmlns="http://www.w3.org/2000/svg">
<path d="M101 17.219V27.9881H95.8521V17.219C95.8521 14.3196 94.7279 12.5445 91.9271 12.5445C89.1264 12.5445 88.0021 14.3196 88.0021 17.219V27.9881H82.8542V17.219C82.8542 11.223 85.9508 7.77135 92.0257 7.77135C98.002 7.75163 101 11.1244 101 17.219ZM20.7049 18.146C20.9613 23.57 16.7996 28.1656 11.3756 28.4418C11.0601 28.4615 10.7445 28.4615 10.4092 28.4418C4.90626 28.6784 0.251477 24.3984 0.0147928 18.8955C-0.00493092 18.6194 -0.00493092 18.3432 0.0147928 18.0474V1.02585H5.16267V10.4735C6.74057 8.75753 8.98906 7.79107 11.3362 7.85024C16.9574 7.75162 20.7049 11.9725 20.7049 18.146ZM15.4584 18.146C15.6162 15.2663 13.4269 12.8009 10.5275 12.6234C10.4486 12.6234 10.3697 12.6234 10.3106 12.6234C7.39145 12.7023 5.08378 15.1283 5.16267 18.0277C5.16267 18.0671 5.16267 18.1066 5.16267 18.146C5.00488 21.0257 7.19421 23.4911 10.0739 23.6489C10.1528 23.6489 10.2317 23.6489 10.2908 23.6489C13.1705 23.6095 15.4782 21.2426 15.4387 18.363C15.4782 18.3038 15.4782 18.2249 15.4584 18.146ZM42.6968 18.5207C42.7165 19.0533 42.6771 19.5858 42.5982 20.1184H27.9041C28.1802 22.5444 30.4287 24.142 33.1506 24.142C35.044 24.2209 36.8981 23.5503 38.2984 22.2682L40.9217 25.8185C38.7126 27.5542 35.9711 28.4812 33.1506 28.4418C26.8784 28.4418 22.6773 24.3195 22.6773 18.2446C22.4801 12.6628 26.839 7.96859 32.4208 7.77135C32.5786 7.77135 32.7166 7.77135 32.8744 7.77135C39.0479 7.75163 42.6968 11.7753 42.6968 18.5207ZM37.4503 16.3709C37.0756 13.9449 35.5766 12.0711 32.6772 12.0711C30.192 11.9922 28.0816 13.8857 27.9041 16.3709H37.4503ZM45.4187 27.8698H50.5666V1.02585H45.4187V27.8698ZM72.2626 8.40251H66.2863L59.3633 17.002V1.00613H54.2154V27.9487H59.3633V18.5996L66.2863 27.9684H72.5585L64.6098 17.3965L72.2626 8.40251ZM74.5111 27.8698H79.659V8.40251H74.5111V27.8698ZM77.1344 0.000221199C75.4973 -0.0195025 74.1561 1.28226 74.1364 2.91933C74.1364 2.93905 74.1364 2.9785 74.1364 2.99822C74.1364 4.65501 75.4776 5.99622 77.1344 5.99622C78.7911 5.99622 80.1324 4.65501 80.1324 2.99822C80.1324 1.32171 78.7911 0.000221199 77.1344 0.000221199Z" fill="black"/>
</svg>
