<svg width="18" height="19" viewBox="0 0 18 19" fill="none" xmlns="http://www.w3.org/2000/svg">
<g clip-path="url(#clip0_264_46903)">
<path d="M16.1998 9.38302L12.7498 6.60802V4.71802C12.7681 4.33922 12.6355 3.9686 12.3811 3.68742C12.1266 3.40623 11.771 3.23743 11.3923 3.21802H2.84227C2.4662 3.24124 2.11441 3.41169 1.86313 3.69246C1.61185 3.97322 1.4813 4.34168 1.49977 4.71802V12.218C1.49281 12.5158 1.57469 12.809 1.73498 13.0601C1.89526 13.3112 2.1267 13.5089 2.39977 13.628C2.26165 13.9659 2.20781 14.3324 2.24292 14.6957C2.27803 15.0591 2.40101 15.4084 2.60127 15.7137C2.80153 16.0189 3.07305 16.2708 3.3924 16.4476C3.71174 16.6245 4.06932 16.721 4.43429 16.7288C4.79926 16.7367 5.16064 16.6556 5.48727 16.4925C5.8139 16.3295 6.09596 16.0895 6.30911 15.7931C6.52226 15.4968 6.6601 15.153 6.71074 14.7915C6.76138 14.4299 6.72329 14.0615 6.59977 13.718H11.3698C11.2464 14.0579 11.2068 14.4224 11.2542 14.7808C11.3017 15.1393 11.4348 15.481 11.6423 15.777C11.8498 16.0731 12.1256 16.3148 12.4463 16.4817C12.767 16.6485 13.1232 16.7357 13.4848 16.7357C13.8463 16.7357 14.2025 16.6485 14.5233 16.4817C14.844 16.3148 15.1198 16.0731 15.3273 15.777C15.5348 15.481 15.6679 15.1393 15.7153 14.7808C15.7628 14.4224 15.7231 14.0579 15.5998 13.718H15.7498C15.9487 13.718 16.1394 13.639 16.2801 13.4983C16.4208 13.3577 16.4998 13.1669 16.4998 12.968V9.96802C16.4975 9.85413 16.4693 9.74226 16.4173 9.64089C16.3653 9.53953 16.2909 9.45134 16.1998 9.38302ZM14.9998 10.328V12.218H12.7498V8.52802L14.9998 10.328ZM5.24977 14.468C5.24977 14.6164 5.20578 14.7614 5.12337 14.8847C5.04096 15.008 4.92383 15.1042 4.78678 15.1609C4.64974 15.2177 4.49894 15.2325 4.35345 15.2036C4.20797 15.1747 4.07433 15.1032 3.96944 14.9983C3.86455 14.8935 3.79312 14.7598 3.76418 14.6143C3.73524 14.4689 3.7501 14.3181 3.80686 14.181C3.86363 14.044 3.95976 13.9268 4.08309 13.8444C4.20643 13.762 4.35143 13.718 4.49977 13.718C4.69868 13.718 4.88945 13.797 5.0301 13.9377C5.17075 14.0783 5.24977 14.2691 5.24977 14.468ZM8.99977 12.218H2.99977V4.71802H11.2498V12.218H8.99977ZM14.2498 14.468C14.2498 14.6164 14.2058 14.7614 14.1234 14.8847C14.041 15.008 13.9238 15.1042 13.7868 15.1609C13.6497 15.2177 13.4989 15.2325 13.3535 15.2036C13.208 15.1747 13.0743 15.1032 12.9694 14.9983C12.8646 14.8935 12.7931 14.7598 12.7642 14.6143C12.7352 14.4689 12.7501 14.3181 12.8069 14.181C12.8636 14.044 12.9598 13.9268 13.0831 13.8444C13.2064 13.762 13.3514 13.718 13.4998 13.718C13.6987 13.718 13.8894 13.797 14.0301 13.9377C14.1708 14.0783 14.2498 14.2691 14.2498 14.468Z" fill="#131244" fill-opacity="0.4"/>
</g>
<defs>
<clipPath id="clip0_264_46903">
<rect width="18" height="18" fill="white" transform="translate(0 0.968018)"/>
</clipPath>
</defs>
</svg>
