<svg width="11" height="20" viewBox="0 0 11 20" fill="none" xmlns="http://www.w3.org/2000/svg">
<path d="M0.000209937 10.1191C0.000209975 10.5498 0.1578 10.907 0.493993 11.2432L8.58362 19.1542C8.85677 19.4274 9.18246 19.5535 9.57118 19.5535C10.3591 19.5535 11 18.9336 11 18.1457C11 17.7569 10.8319 17.3997 10.5482 17.1161L3.36213 10.1296L10.5482 3.12207C10.8319 2.83841 11 2.49171 11 2.09248C11 1.30453 10.3591 0.674173 9.57118 0.674173C9.18246 0.674174 8.85677 0.810751 8.58362 1.08391L0.493993 8.99493C0.147294 9.33112 0.0002099 9.68833 0.000209937 10.1191Z" fill="#131244"/>
</svg>
