<svg width="30" height="29" viewBox="0 0 30 29" fill="none" xmlns="http://www.w3.org/2000/svg">
<g clip-path="url(#clip0_435_2747)">
<path d="M15 29C23.0081 29 29.5 22.5081 29.5 14.5C29.5 6.49187 23.0081 0 15 0C6.99187 0 0.5 6.49187 0.5 14.5C0.5 22.5081 6.99187 29 15 29Z" fill="#F0F0F0"/>
<path d="M3.49742 5.67212C2.35843 7.15401 1.49959 8.86201 0.999512 10.7175H8.5428L3.49742 5.67212Z" fill="#0052B4"/>
<path d="M29.0002 10.7174C28.5001 8.86201 27.6412 7.15401 26.5023 5.67212L21.457 10.7174H29.0002Z" fill="#0052B4"/>
<path d="M0.999512 18.2827C1.49965 20.1381 2.35849 21.8461 3.49742 23.328L8.54263 18.2827H0.999512Z" fill="#0052B4"/>
<path d="M23.828 2.99748C22.3461 1.85849 20.6382 0.999648 18.7827 0.499512V8.04274L23.828 2.99748Z" fill="#0052B4"/>
<path d="M6.17188 26.0025C7.65376 27.1415 9.36176 28.0003 11.2172 28.5004V20.9573L6.17188 26.0025Z" fill="#0052B4"/>
<path d="M11.2171 0.499512C9.36171 0.999648 7.65371 1.85849 6.17188 2.99742L11.2171 8.04268V0.499512Z" fill="#0052B4"/>
<path d="M18.7827 28.5004C20.6381 28.0003 22.3461 27.1415 23.828 26.0025L18.7827 20.9573V28.5004Z" fill="#0052B4"/>
<path d="M21.457 18.2827L26.5023 23.328C27.6412 21.8462 28.5001 20.1381 29.0002 18.2827H21.457Z" fill="#0052B4"/>
<path d="M29.3773 12.6087H16.8914H16.8913V0.12274C16.2722 0.0421406 15.641 0 15 0C14.3589 0 13.7278 0.0421406 13.1087 0.12274V12.6086V12.6087H0.62274C0.542141 13.2278 0.5 13.859 0.5 14.5C0.5 15.1411 0.542141 15.7722 0.62274 16.3913H13.1086H13.1087V28.8773C13.7278 28.9579 14.3589 29 15 29C15.641 29 16.2722 28.9579 16.8913 28.8773V16.3914V16.3913H29.3773C29.4579 15.7722 29.5 15.1411 29.5 14.5C29.5 13.859 29.4579 13.2278 29.3773 12.6087Z" fill="#D80027"/>
<path d="M18.7827 18.2828L25.2531 24.7532C25.5507 24.4557 25.8346 24.1447 26.1054 23.8223L20.5659 18.2827H18.7827V18.2828Z" fill="#D80027"/>
<path d="M11.2175 18.2827H11.2174L4.74707 24.7531C5.04455 25.0506 5.35556 25.3345 5.67796 25.6054L11.2175 20.0657V18.2827Z" fill="#D80027"/>
<path d="M11.2173 10.7174V10.7173L4.74686 4.24683C4.44927 4.5443 4.16539 4.85532 3.89453 5.17771L9.43415 10.7173H11.2173V10.7174Z" fill="#D80027"/>
<path d="M18.7827 10.7176L25.2532 4.24705C24.9557 3.94946 24.6447 3.66557 24.3223 3.39478L18.7827 8.9344V10.7176Z" fill="#D80027"/>
</g>
<defs>
<clipPath id="clip0_435_2747">
<rect width="29" height="29" fill="white" transform="translate(0.5)"/>
</clipPath>
</defs>
</svg>
