<svg width="31" height="30" viewBox="0 0 31 30" fill="none" xmlns="http://www.w3.org/2000/svg">
<rect x="0.5" width="30" height="30" rx="10" fill="#FF2D55"/>
<g clip-path="url(#clip0_242_40340)">
<path d="M15.5002 23.3751C15.385 23.3757 15.2709 23.3537 15.1643 23.3101C15.0577 23.2666 14.9607 23.2024 14.8789 23.1213L8.08019 16.3138C7.22738 15.4521 6.74902 14.2887 6.74902 13.0763C6.74902 11.864 7.22738 10.7005 8.08019 9.83883C8.93967 8.98177 10.1039 8.50049 11.3177 8.50049C12.5315 8.50049 13.6957 8.98177 14.5552 9.83883L15.5002 10.7838L16.4452 9.83883C17.3047 8.98177 18.4689 8.50049 19.6827 8.50049C20.8965 8.50049 22.0607 8.98177 22.9202 9.83883C23.773 10.7005 24.2514 11.864 24.2514 13.0763C24.2514 14.2887 23.773 15.4521 22.9202 16.3138L16.1214 23.1213C16.0397 23.2024 15.9427 23.2666 15.8361 23.3101C15.7295 23.3537 15.6153 23.3757 15.5002 23.3751Z" fill="white"/>
</g>
<defs>
<clipPath id="clip0_242_40340">
<rect width="21" height="21" fill="white" transform="translate(5 5)"/>
</clipPath>
</defs>
</svg>
