<svg width="28" height="28" viewBox="0 0 28 28" fill="none" xmlns="http://www.w3.org/2000/svg">
<path d="M21.4183 21.2209H24.3032M5.62004 13.7375L3.69678 13.7879M5.62004 13.7375C5.62004 15.2549 6.85015 16.4851 8.36756 16.4851C9.88498 16.4851 11.1151 15.2549 11.1151 13.7375C11.1151 12.2201 9.88498 10.99 8.36756 10.99C6.85015 10.99 5.62004 12.2201 5.62004 13.7375ZM11.9038 13.788H24.3032M14.9169 6.35498L3.69678 6.35498M24.3032 6.35498H21.4183M3.69678 21.2209H14.9169M20.7314 21.2932C20.7314 22.8106 19.5013 24.0407 17.9839 24.0407C16.4665 24.0407 15.2364 22.8106 15.2364 21.2932C15.2364 19.7758 16.4665 18.5457 17.9839 18.5457C19.5013 18.5457 20.7314 19.7758 20.7314 21.2932ZM20.7314 6.18185C20.7314 7.69926 19.5013 8.92937 17.9839 8.92937C16.4665 8.92937 15.2364 7.69926 15.2364 6.18185C15.2364 4.66443 16.4665 3.43433 17.9839 3.43433C19.5013 3.43433 20.7314 4.66443 20.7314 6.18185Z" stroke="#131244" stroke-width="2.2896" stroke-linecap="round"/>
</svg>
