<svg width="31" height="32" viewBox="0 0 31 32" fill="none" xmlns="http://www.w3.org/2000/svg">
<g clip-path="url(#clip0_376_952)">
<path d="M15.4999 27.7387C15.3299 27.7397 15.1614 27.7071 15.0041 27.6429C14.8467 27.5786 14.7035 27.4839 14.5829 27.3641L4.5466 17.315C3.28769 16.0429 2.58154 14.3255 2.58154 12.5358C2.58154 10.7461 3.28769 9.02871 4.5466 7.75665C5.81536 6.49147 7.53401 5.78101 9.32577 5.78101C11.1175 5.78101 12.8362 6.49147 14.1049 7.75665L15.4999 9.15165L16.8949 7.75665C18.1637 6.49147 19.8823 5.78101 21.6741 5.78101C23.4659 5.78101 25.1845 6.49147 26.4533 7.75665C27.7122 9.02871 28.4183 10.7461 28.4183 12.5358C28.4183 14.3255 27.7122 16.0429 26.4533 17.315L16.417 27.3641C16.2963 27.4839 16.1532 27.5786 15.9958 27.6429C15.8384 27.7071 15.6699 27.7397 15.4999 27.7387ZM9.32577 8.36373C8.77898 8.36125 8.23713 8.4673 7.73161 8.67571C7.22608 8.88413 6.76694 9.19078 6.38077 9.5779C5.60068 10.3621 5.16278 11.4232 5.16278 12.5294C5.16278 13.6355 5.60068 14.6966 6.38077 15.4808L15.4999 24.6129L24.6191 15.4808C25.3992 14.6966 25.8371 13.6355 25.8371 12.5294C25.8371 11.4232 25.3992 10.3621 24.6191 9.5779C23.823 8.82577 22.7693 8.40674 21.6741 8.40674C20.5789 8.40674 19.5252 8.82577 18.7291 9.5779L16.417 11.9029C16.2969 12.024 16.1541 12.1201 15.9967 12.1856C15.8393 12.2512 15.6705 12.285 15.4999 12.285C15.3294 12.285 15.1606 12.2512 15.0032 12.1856C14.8458 12.1201 14.7029 12.024 14.5829 11.9029L12.2708 9.5779C11.8846 9.19078 11.4255 8.88413 10.9199 8.67571C10.4144 8.4673 9.87256 8.36125 9.32577 8.36373Z" fill="#FF5574"/>
</g>
<defs>
<clipPath id="clip0_376_952">
<rect width="31" height="31" fill="white" transform="translate(0 0.61377)"/>
</clipPath>
</defs>
</svg>
