<svg width="70" height="70" viewBox="0 0 70 70" fill="none" xmlns="http://www.w3.org/2000/svg">
<circle cx="34.782" cy="34.7176" r="34.7176" fill="#FFA944" fill-opacity="0.1"/>
<path d="M30.2822 50H39.2822C43.7822 50 45.2822 48.5 45.2822 44V26C45.2822 21.5 43.7822 20 39.2822 20H30.2822C25.7822 20 24.2822 21.5 24.2822 26V44C24.2822 48.5 25.7822 50 30.2822 50Z" stroke="#FFA944" stroke-width="2.25" stroke-miterlimit="10" stroke-linecap="round" stroke-linejoin="round"/>
<path d="M34.7822 44C37.2675 44 39.2822 41.9853 39.2822 39.5C39.2822 37.0147 37.2675 35 34.7822 35C32.2969 35 30.2822 37.0147 30.2822 39.5C30.2822 41.9853 32.2969 44 34.7822 44Z" fill="#FFA944" fill-opacity="0.4" stroke="#FFA944" stroke-width="2.25" stroke-miterlimit="10" stroke-linecap="round" stroke-linejoin="round"/>
<path d="M34.7822 30.5C36.0249 30.5 37.0322 29.4926 37.0322 28.25C37.0322 27.0074 36.0249 26 34.7822 26C33.5396 26 32.5322 27.0074 32.5322 28.25C32.5322 29.4926 33.5396 30.5 34.7822 30.5Z" fill="#FFA944" fill-opacity="0.4" stroke="#FFA944" stroke-width="2.25" stroke-miterlimit="10" stroke-linecap="round" stroke-linejoin="round"/>
</svg>
