<svg width="70" height="70" viewBox="0 0 70 70" fill="none" xmlns="http://www.w3.org/2000/svg">
<circle cx="35.0647" cy="34.7176" r="34.7176" fill="#FF5574" fill-opacity="0.1"/>
<path d="M29.5014 46.9791C27.433 46.9791 25.7614 45.3074 25.7614 43.2391V33.5916H25.478C21.9364 33.5916 19.0605 30.7158 19.0605 27.1741C19.0605 23.6325 21.9364 20.7566 25.478 20.7566H28.1556C30.9606 20.7566 33.2272 23.0374 33.2272 25.8283V43.2249C33.2414 45.3074 31.5697 46.9791 29.5014 46.9791ZM25.4922 22.8958C23.1264 22.8958 21.1997 24.8225 21.1997 27.1883C21.1997 29.5541 23.1264 31.4808 25.4922 31.4808H26.8381C27.4189 31.4808 27.9006 31.9624 27.9006 32.5433V43.2533C27.9006 44.1458 28.6231 44.8683 29.5156 44.8683C30.4081 44.8683 31.1306 44.1458 31.1306 43.2533V25.8566C31.1306 24.2275 29.8131 22.91 28.1839 22.91H25.4922V22.8958Z" fill="#FF5574"/>
<path d="M25.4918 29.5825C24.1743 29.5825 23.0977 28.5059 23.0977 27.1742C23.0977 25.8425 24.1743 24.78 25.4918 24.78C26.0727 24.78 26.5543 25.2617 26.5543 25.8425C26.5543 26.4234 26.0727 26.905 25.4918 26.905C25.336 26.905 25.2227 27.0325 25.2227 27.1742C25.2227 27.3159 25.3502 27.4575 25.4918 27.4575C26.0727 27.4575 26.5543 27.9391 26.5543 28.52C26.5543 29.1008 26.0727 29.5825 25.4918 29.5825Z" fill="#FF5574"/>
<path d="M39.1062 46.9791C37.0379 46.9791 35.3662 45.3074 35.3662 43.2391V25.8424C35.3662 23.0374 37.647 20.7708 40.4379 20.7708H43.1154C46.657 20.7708 49.5329 23.6466 49.5329 27.1883C49.5329 30.73 46.657 33.6057 43.1154 33.6057H42.832V43.2532C42.8462 45.3074 41.1604 46.9791 39.1062 46.9791ZM40.4379 22.8958C38.8087 22.8958 37.4912 24.2133 37.4912 25.8424V43.2391C37.4912 44.1316 38.2137 44.8541 39.1062 44.8541C39.9987 44.8541 40.7212 44.1316 40.7212 43.2391V32.5291C40.7212 31.9482 41.2029 31.4666 41.7837 31.4666H43.1296C45.4954 31.4666 47.4221 29.5399 47.4221 27.1741C47.4221 24.8083 45.4954 22.8816 43.1296 22.8816H40.4379V22.8958Z" fill="#FF5574"/>
<path d="M43.1152 29.5825C42.5344 29.5825 42.0527 29.1008 42.0527 28.52C42.0527 27.9391 42.5344 27.4575 43.1152 27.4575C43.2711 27.4575 43.3844 27.33 43.3844 27.1742C43.3844 27.0184 43.2569 26.905 43.1152 26.905C42.5344 26.905 42.0527 26.4234 42.0527 25.8425C42.0527 25.2617 42.5344 24.78 43.1152 24.78C44.4327 24.78 45.5094 25.8567 45.5094 27.1742C45.5094 28.4917 44.4469 29.5825 43.1152 29.5825Z" fill="#FF5574"/>
<path d="M29.3452 51.2292C28.7644 51.2292 28.2827 50.7476 28.2827 50.1667V45.9167C28.2827 45.3359 28.7644 44.8542 29.3452 44.8542C29.926 44.8542 30.4077 45.3359 30.4077 45.9167V50.1667C30.4077 50.7476 29.926 51.2292 29.3452 51.2292Z" fill="#FF5574"/>
<path d="M39.2622 51.2292C38.6814 51.2292 38.1997 50.7476 38.1997 50.1667V45.9167C38.1997 45.3359 38.6814 44.8542 39.2622 44.8542C39.843 44.8542 40.3247 45.3359 40.3247 45.9167V50.1667C40.3247 50.7476 39.843 51.2292 39.2622 51.2292Z" fill="#FF5574"/>
</svg>
