<svg width="129" height="51" viewBox="0 0 129 51" fill="none" xmlns="http://www.w3.org/2000/svg">
<path d="M8.31373 28.2887C4.53214 28.2887 2.0207 26.6721 0.0866014 24.5071L3.66613 21.6781C4.73421 23.5256 6.35077 24.5359 8.28487 24.5359C10.3633 24.5359 11.4891 23.1792 11.4891 21.707C11.4891 19.9461 9.32408 19.3687 7.10131 18.6759C4.24347 17.7522 1.12582 16.6841 1.12582 12.6716C1.12582 9.2941 4.07027 6.63832 8.11166 6.63832C11.4891 6.63832 13.481 7.93734 15.1841 9.69824L11.951 12.1519C11.0561 10.7952 9.78596 10.1312 8.14053 10.1312C6.20643 10.1312 5.19608 11.1705 5.19608 12.5272C5.19608 14.2304 7.18792 14.7211 9.49729 15.5005C12.3551 16.4243 15.5883 17.6944 15.5883 21.7358C15.5883 25.0556 12.9325 28.2887 8.31373 28.2887ZM25.5799 28.3464C21.5096 28.3464 17.2662 25.1133 17.2662 19.5708C17.2662 13.9706 21.3653 10.7663 25.6376 10.7663C27.8604 10.7663 29.8234 11.6612 31.0646 13.1334V11.1127H34.9617V28H31.0646V25.8061C29.8234 27.3938 27.8027 28.3464 25.5799 28.3464ZM26.215 24.7669C29.1305 24.7669 31.2667 22.4286 31.2667 19.5131C31.2667 16.6263 29.1305 14.317 26.215 14.317C23.3283 14.317 21.1055 16.5975 21.1055 19.5131C21.1055 22.4575 23.3283 24.7669 26.215 24.7669ZM37.3225 28V11.1127H41.1907V13.6242C41.9701 11.9499 43.4135 11.1127 45.5208 11.1127C46.762 11.1127 47.7147 11.4014 48.4941 11.8344L47.0219 15.5294C46.4445 15.1541 45.8094 14.8655 44.6836 14.8655C42.4031 14.8655 41.2196 16.0779 41.2196 18.9935V28H37.3225ZM56.956 28.3464C52.8857 28.3464 48.6422 25.1133 48.6422 19.5708C48.6422 13.9706 52.7414 10.7663 57.0137 10.7663C59.2365 10.7663 61.1994 11.6612 62.4407 13.1334V11.1127H66.3378V28H62.4407V25.8061C61.1994 27.3938 59.1787 28.3464 56.956 28.3464ZM57.5911 24.7669C60.5066 24.7669 62.6428 22.4286 62.6428 19.5131C62.6428 16.6263 60.5066 14.317 57.5911 14.317C54.7043 14.317 52.4816 16.5975 52.4816 19.5131C52.4816 22.4575 54.7043 24.7669 57.5911 24.7669Z" fill="#2A2D53"/>
<path d="M79.0075 28.2887C72.4258 28.2887 68.0669 23.3235 68.0669 17.4635C68.0669 11.4591 72.599 6.63832 78.8343 6.63832C83.1933 6.63832 86.6285 8.86109 88.4182 12.0365L84.9542 14.1149C83.6263 11.6612 81.6056 10.4488 78.8632 10.4488C74.9373 10.4488 71.964 13.653 71.964 17.4635C71.964 21.3606 74.9084 24.4782 79.0075 24.4782C82.2118 24.4782 84.3191 22.6884 85.0985 19.9172H78.3725V16.1645H89.3131V17.7233C89.3131 23.4101 85.3294 28.2887 79.0075 28.2887ZM97.9879 28.2887C94.2063 28.2887 91.6949 26.6721 89.7608 24.5071L93.3403 21.6781C94.4084 23.5256 96.0249 24.5359 97.959 24.5359C100.037 24.5359 101.163 23.1792 101.163 21.707C101.163 19.9461 98.9982 19.3687 96.7755 18.6759C93.9176 17.7522 90.8 16.6841 90.8 12.6716C90.8 9.2941 93.7444 6.63832 97.7858 6.63832C101.163 6.63832 103.155 7.93734 104.858 9.69824L101.625 12.1519C100.73 10.7952 99.4601 10.1312 97.8147 10.1312C95.8806 10.1312 94.8702 11.1705 94.8702 12.5272C94.8702 14.2304 96.8621 14.7211 99.1715 15.5005C102.029 16.4243 105.262 17.6944 105.262 21.7358C105.262 25.0556 102.607 28.2887 97.9879 28.2887ZM107.153 28V6.92699H111.05L117.429 15.7892L124.069 6.92699H127.793V28H123.867V13.22L117.4 21.9379L111.078 13.3644V28H107.153Z" fill="#0661F8"/>
<path d="M6.74363 47.5298C5.57812 47.5298 4.70398 47.2939 4.12123 46.8222C3.54772 46.3597 3.26097 45.6058 3.26097 44.5605C3.26097 44.283 3.2841 43.8205 3.33035 43.173C3.3766 42.5163 3.42285 41.9289 3.4691 41.4109L4.69011 41.508C4.60686 42.9233 4.56523 43.8344 4.56523 44.2414C4.56523 44.7594 4.76874 45.1109 5.17574 45.2959C5.58274 45.4902 6.13775 45.5873 6.84075 45.5873C8.33001 45.5873 9.5464 45.3422 10.4899 44.8519L10.4622 44.1165C10.4529 43.9685 10.5362 43.8437 10.7119 43.7419C10.8877 43.6402 11.0773 43.5893 11.2808 43.5893C11.4288 43.5893 11.549 43.6217 11.6415 43.6864C11.7433 43.7419 11.7942 43.8298 11.7942 43.95V44.5883C11.7942 45.245 11.5583 45.7954 11.0865 46.2394C10.6148 46.6834 9.99503 47.0072 9.22727 47.2107C8.46877 47.4234 7.64088 47.5298 6.74363 47.5298ZM7.52063 44.1027L7.64551 42.285H12.5157L12.6544 42.4238V44.0888L12.5157 44.2275H11.1004L7.52063 44.1027ZM12.5212 42.285H12.9513C13.6821 42.285 14.2417 42.211 14.6302 42.063L14.5053 38.5942L16.0039 38.511V40.7865C16.0039 41.73 15.8559 42.4561 15.5599 42.9649C15.2639 43.4644 14.8661 43.802 14.3666 43.9778C13.8763 44.1443 13.2612 44.2275 12.5212 44.2275V42.285ZM17.655 44.2275C17.1925 44.2275 16.7855 44.1998 16.434 44.1443C16.0825 44.0888 15.7541 43.9177 15.4489 43.6309C15.1436 43.3349 14.991 42.877 14.991 42.2573V38.9134H16.0039V41.2583C16.0039 41.6745 16.138 41.952 16.4062 42.0908C16.6745 42.2203 17.0907 42.285 17.655 42.285L17.7937 42.4238V44.0888L17.655 44.2275ZM14.3111 45.3098H15.99V47.0442H14.3111V45.3098ZM17.6566 42.285C18.0544 42.285 18.4799 42.2711 18.9331 42.2434C19.3956 42.2064 19.724 42.1463 19.9183 42.063L19.7656 38.3306L21.3058 38.2612V41.6051C21.3058 42.5857 20.9866 43.2702 20.3484 43.6587C19.7194 44.0379 18.8221 44.2275 17.6566 44.2275V42.285ZM21.4168 35.292V37.0264H19.7379V35.292H21.4168ZM26.3197 44.2275C25.6629 44.2275 25.1218 44.1767 24.6963 44.0749C24.2708 43.9732 23.9193 43.7558 23.6418 43.4228C23.3735 43.0805 23.2302 42.5672 23.2117 41.8826L23.0313 35.0838L24.5575 34.9312V41.619C24.5575 41.804 24.6038 41.9428 24.6963 42.0353C24.7888 42.1278 24.9553 42.1925 25.1958 42.2295C25.4455 42.2665 25.8202 42.285 26.3197 42.285L26.4584 42.4238V44.0888L26.3197 44.2275ZM30.6163 42.285L30.7551 42.4238V44.0888L30.6163 44.2275H26.315V42.285H30.6163ZM34.9116 42.285L35.0504 42.4238V44.0888L34.9116 44.2275H30.6103V42.285H34.9116ZM34.9057 42.285H37.0008C37.6761 42.285 38.1709 42.248 38.4854 42.174C38.8092 42.1 39.0867 41.9659 39.318 41.7716C39.5585 41.5681 39.9562 41.175 40.5112 40.5923L41.3576 39.6765L43.1336 40.8143C42.8839 40.768 42.7035 40.7449 42.5925 40.7449C42.389 40.7449 42.2271 40.7819 42.1069 40.8559C41.9866 40.9206 41.8617 41.027 41.7322 41.175C40.8627 42.1463 40.2013 42.8308 39.7481 43.2285C39.2948 43.617 38.8323 43.8807 38.3606 44.0194C37.8888 44.1582 37.2274 44.2275 36.3764 44.2275H34.9057V42.285ZM35.6827 40.8281L35.8769 39.732C35.9694 39.1955 36.1683 38.7746 36.4736 38.4694C36.7881 38.1641 37.2089 38.0115 37.7362 38.0115C37.9119 38.0115 38.1247 38.0346 38.3744 38.0809C38.9017 38.1826 40.2245 38.4416 42.3427 38.8579L43.5776 39.0937L43.1336 40.8143L37.0563 39.6349L36.8204 41.0085L35.6827 40.8281ZM37.8194 45.3375H39.4983V47.0719H37.8194V45.3375ZM50.5579 44.2969C50.2989 44.2969 49.9844 44.2738 49.6144 44.2275C49.2536 44.1905 48.9206 44.135 48.6154 44.061L49.1842 47.7934L47.7967 48.1126L47.7274 47.4604C47.6441 46.8037 47.5655 46.1331 47.4915 45.4485C47.4175 44.7733 47.362 44.2368 47.325 43.839C47.3065 43.3673 47.3296 42.914 47.3944 42.4793L47.5331 41.73C47.6719 40.9068 47.7875 40.3009 47.88 39.9124C48.0187 39.3111 48.3009 38.8625 48.7264 38.5665C49.1519 38.2612 49.6884 38.1086 50.3359 38.1086H52.6946V42.3821C52.6946 42.9279 52.6021 43.3395 52.4171 43.617C52.2321 43.8945 51.987 44.0795 51.6818 44.172C51.3858 44.2553 51.0111 44.2969 50.5579 44.2969ZM48.5737 42.285C49.3137 42.4145 50.285 42.4885 51.4875 42.507V39.9263H49.8225C49.5542 39.9263 49.3507 39.991 49.212 40.1205C49.0732 40.25 48.9761 40.4489 48.9206 40.7171L48.5737 42.285ZM51.5039 45.6289C52.2439 45.4809 52.8821 45.2913 53.4186 45.06C53.9552 44.8288 54.3622 44.5929 54.6397 44.3524C54.9172 44.1212 55.0605 43.9177 55.0698 43.7419L55.0837 43.1592C55.0837 43.0759 55.1392 42.9464 55.2502 42.7707C55.3612 42.5949 55.4907 42.4376 55.6387 42.2989C55.7867 42.1509 55.9162 42.0769 56.0272 42.0769C56.2029 42.0769 56.2908 42.2758 56.2908 42.6735C56.2908 43.395 56.2075 44.0425 56.041 44.616C55.8838 45.1988 55.4722 45.7584 54.8062 46.2949C54.1494 46.8314 53.1411 47.2246 51.7814 47.4743L51.5039 45.6289ZM54.6258 38.8301L56.152 38.7052L56.1659 39.1492C56.2492 40.4813 56.2908 41.656 56.2908 42.6735C56.2908 43.1915 56.2353 43.617 56.1243 43.95C56.0133 44.283 55.8792 44.5235 55.7219 44.6715C55.5647 44.8195 55.4074 44.8935 55.2502 44.8935C55.1669 44.8935 55.0975 44.8704 55.042 44.8242C54.9865 44.7779 54.9588 44.7178 54.9588 44.6438L54.6258 38.8301ZM56.263 35.7221V37.4565H54.5842V35.7221H56.263ZM57.8546 35.0838L59.3808 34.9312V44.2275L57.9933 44.3385L57.8546 35.0838ZM65.1697 44.3524C65.1697 43.0944 65.1373 42.1925 65.0726 41.6468C65.0078 41.101 64.8182 40.6801 64.5037 40.3841C64.1984 40.0881 63.6804 39.9401 62.9497 39.9401H62.575L62.353 42.3266C62.5288 42.3636 62.9173 42.3821 63.5185 42.3821C63.5463 42.3821 64.1614 42.3636 65.3639 42.3266L65.9467 42.2989V44.061L65.4888 44.1165C65.1836 44.1535 64.8228 44.1905 64.4065 44.2275C63.9995 44.2738 63.5972 44.2969 63.1994 44.2969C62.5889 44.2969 62.0894 44.1674 61.7009 43.9084C61.3124 43.6494 61.1181 43.21 61.1181 42.5903C61.1181 42.4423 61.1228 42.3266 61.132 42.2434L61.5899 38.1086H62.908C63.87 38.1086 64.6008 38.3167 65.1003 38.733C65.6091 39.14 65.9513 39.7089 66.1271 40.4396C66.3028 41.1611 66.3861 42.0908 66.3768 43.2285L65.1697 44.3524ZM61.1598 45.6289C62.1958 45.5272 63.0375 45.3745 63.685 45.171C64.3418 44.9675 64.8367 44.7455 65.1697 44.505V43.1314C65.1697 43.0204 65.2576 42.8863 65.4333 42.729C65.6183 42.5625 65.7941 42.4793 65.9606 42.4793C66.2381 42.4793 66.3768 42.729 66.3768 43.2285C66.3768 44.0333 66.2889 44.6854 66.1132 45.1849C65.9467 45.6844 65.5027 46.1377 64.7812 46.5447C64.0689 46.9517 62.9543 47.2616 61.4373 47.4743L61.1598 45.6289ZM65.7802 42.285H67.5978L67.7366 42.4238V44.0888L67.5978 44.2275H65.7802V42.285ZM67.6016 42.285C67.8791 42.285 68.1982 42.2665 68.559 42.2295C68.929 42.1925 69.2158 42.137 69.4193 42.063L69.2944 35.0838L70.8068 34.9312V41.8826C70.8068 42.7244 70.5339 43.3257 69.9881 43.6864C69.4516 44.0472 68.6561 44.2275 67.6016 44.2275V42.285ZM76.7761 44.3524C76.2026 44.3524 75.717 44.1859 75.3192 43.8529C74.9215 43.5199 74.7226 43.0574 74.7226 42.4654C74.7226 42.3081 74.7365 42.1463 74.7642 41.9798L75.4857 38.1641H76.4847C77.6502 38.1641 78.5012 38.4786 79.0377 39.1076C79.5835 39.7366 79.8564 40.6061 79.8564 41.7161C79.8564 42.0676 79.8009 42.3729 79.6899 42.6319C79.5789 42.8817 79.4448 43.0759 79.2875 43.2147C79.1302 43.3442 78.9915 43.4089 78.8712 43.4089C78.7695 43.4089 78.7186 43.358 78.7186 43.2563C78.7186 42.4145 78.6724 41.7716 78.5799 41.3276C78.4874 40.8744 78.2839 40.5368 77.9694 40.3148C77.6641 40.0835 77.1877 39.9679 76.5402 39.9679H76.3321L75.9436 42.4099C76.1193 42.4376 76.5032 42.4515 77.0952 42.4515C77.5762 42.4423 78.011 42.4053 78.3995 42.3405C78.788 42.2758 79.0285 42.2249 79.121 42.1879C79.2412 42.1231 79.3985 42.0075 79.5928 41.841C79.6575 41.7855 79.7176 41.7439 79.7731 41.7161C79.8286 41.6791 79.8564 41.6791 79.8564 41.7161C79.8564 42.4284 79.7315 42.9788 79.4818 43.3673C79.2412 43.7465 78.899 44.0055 78.455 44.1443C78.0202 44.283 77.4606 44.3524 76.7761 44.3524ZM84.7469 44.2275C84.0902 44.2275 83.549 44.1767 83.1235 44.0749C82.698 43.9732 82.3465 43.7558 82.069 43.4228C81.8008 43.0805 81.6574 42.5672 81.6389 41.8826L81.4585 35.0838L82.9848 34.9312V41.619C82.9848 41.804 83.031 41.9428 83.1235 42.0353C83.216 42.1278 83.3825 42.1925 83.623 42.2295C83.8728 42.2665 84.2474 42.285 84.7469 42.285L84.8857 42.4238V44.0888L84.7469 44.2275ZM84.7423 42.285H85.2279C86.4397 42.285 87.1935 42.2665 87.4895 42.2295C87.7855 42.1925 87.9428 42.174 87.9613 42.174V40.9808C87.9613 40.731 87.9289 40.5368 87.8642 40.398C87.7994 40.25 87.6607 40.1113 87.4479 39.9818C87.0039 39.695 86.2408 39.2371 85.1585 38.6081L85.547 36.1661L90.3062 34.5982L90.0842 36.3465L86.5322 37.4704L86.99 37.7479C87.656 38.1456 88.137 38.474 88.433 38.733C88.7383 38.9827 88.9557 39.2926 89.0852 39.6626C89.2147 40.0234 89.2794 40.5321 89.2794 41.1889V42.0075C89.2794 42.618 89.0944 43.0852 88.7244 43.4089C88.3544 43.7327 87.8457 43.95 87.1982 44.061C86.5599 44.172 85.7413 44.2275 84.7423 44.2275V42.285ZM90.8889 44.2275C90.4357 44.2275 90.0426 44.1998 89.7096 44.1443C89.3858 44.0888 89.0852 43.9315 88.8077 43.6725C88.5394 43.4135 88.4053 43.0112 88.4053 42.4654V41.175H89.2794V41.286C89.2794 41.693 89.4043 41.9613 89.6541 42.0908C89.9038 42.2203 90.3154 42.285 90.8889 42.285L91.0277 42.4238V44.0888L90.8889 44.2275ZM86.0882 34.0155L89.6679 32.9054L89.5708 34.1542L85.9216 35.3475L86.0882 34.0155ZM95.1952 42.285L95.334 42.4238V44.0888L95.1952 44.2275H90.8939V42.285H95.1952ZM104.819 44.2692C104.439 44.2692 104.018 44.2183 103.556 44.1165C103.103 44.0148 102.686 43.8575 102.307 43.6448C101.937 43.4228 101.692 43.1545 101.572 42.84C101.526 42.7198 101.502 42.5995 101.502 42.4793C101.502 42.1833 101.613 41.8826 101.835 41.5774C102.64 42.0214 103.722 42.3035 105.082 42.4238L104.957 38.3306L106.511 38.2612V42.3405C106.511 42.9973 106.377 43.4829 106.109 43.7974C105.85 44.1119 105.42 44.2692 104.819 44.2692ZM95.1892 42.285H95.55C95.9293 42.285 96.2669 42.2619 96.5629 42.2156C96.8589 42.1694 97.0855 42.1185 97.2428 42.063V38.8024H98.6164V40.7449C98.6164 41.6976 98.473 42.4284 98.1863 42.9372C97.9088 43.4459 97.5249 43.7882 97.0346 43.9639C96.5444 44.1397 95.9293 44.2275 95.1892 44.2275V42.285ZM99.8652 44.2692C99.1159 44.2692 98.5378 44.098 98.1308 43.7558C97.7238 43.4135 97.5203 42.9279 97.5203 42.2989V38.8995H98.6164V41.4803C98.6164 41.7855 98.7135 42.0029 98.9078 42.1324C99.1113 42.2619 99.4628 42.3266 99.9623 42.3266L99.8652 44.2692ZM99.8652 44.2692C99.7727 44.2692 99.6755 44.135 99.5738 43.8668C99.472 43.5985 99.4212 43.3303 99.4212 43.062C99.4212 42.8493 99.4628 42.6735 99.546 42.5348C99.6293 42.396 99.7588 42.3266 99.9345 42.3266C100.545 42.3266 101.04 42.2573 101.419 42.1185V38.8301H102.779V41.9381C102.779 42.7152 102.501 43.2979 101.946 43.6864C101.401 44.0749 100.707 44.2692 99.8652 44.2692ZM102.002 35.9718H103.917V37.512H102.002V35.9718ZM100.087 35.9718H102.002V37.512H100.087V35.9718ZM101.211 34.5705H102.807V35.9718H101.211V34.5705ZM110.231 44.2969C109.621 44.2969 109.121 44.1674 108.733 43.9084C108.344 43.6494 108.15 43.21 108.15 42.5903C108.15 42.4423 108.155 42.3266 108.164 42.2434L108.622 38.1086H109.94C110.902 38.1086 111.633 38.3167 112.132 38.733C112.641 39.14 112.983 39.7089 113.159 40.4396C113.335 41.1611 113.418 42.0908 113.409 43.2285L112.201 44.3524C112.201 43.0944 112.169 42.1925 112.104 41.6468C112.04 41.101 111.85 40.6801 111.535 40.3841C111.23 40.0881 110.712 39.9401 109.981 39.9401H109.607L109.385 42.3266C109.561 42.3636 109.949 42.3821 110.55 42.3821C111.041 42.3729 111.508 42.3498 111.952 42.3128C112.396 42.2665 112.738 42.2249 112.978 42.1879V43.9084C112.026 44.1674 111.11 44.2969 110.231 44.2969ZM108.192 45.6289C109.228 45.5272 110.069 45.3745 110.717 45.171C111.374 44.9675 111.868 44.7455 112.201 44.505V43.1314C112.201 43.0204 112.289 42.8863 112.465 42.729C112.65 42.5625 112.826 42.4793 112.992 42.4793C113.27 42.4793 113.409 42.729 113.409 43.2285C113.409 44.0333 113.321 44.6854 113.145 45.1849C112.978 45.6844 112.534 46.1377 111.813 46.5447C111.101 46.9517 109.986 47.2616 108.469 47.4743L108.192 45.6289ZM113.563 45.6289C114.303 45.4809 114.941 45.2913 115.477 45.06C116.014 44.8288 116.421 44.5929 116.698 44.3524C116.976 44.1212 117.119 43.9177 117.128 43.7419L117.142 43.1592C117.142 43.0759 117.198 42.9464 117.309 42.7707C117.42 42.5949 117.549 42.4376 117.697 42.2989C117.845 42.1509 117.975 42.0769 118.086 42.0769C118.262 42.0769 118.349 42.2758 118.349 42.6735C118.349 43.395 118.266 44.0425 118.1 44.616C117.942 45.1988 117.531 45.7584 116.865 46.2949C116.208 46.8314 115.2 47.2246 113.84 47.4743L113.563 45.6289ZM116.698 39.0244L118.225 38.8995L118.238 39.2602C118.312 40.7125 118.349 41.8503 118.349 42.6735C118.349 43.1915 118.294 43.617 118.183 43.95C118.072 44.283 117.938 44.5235 117.781 44.6715C117.623 44.8195 117.466 44.8935 117.309 44.8935C117.226 44.8935 117.156 44.8704 117.101 44.8242C117.045 44.7779 117.017 44.7178 117.017 44.6438L116.698 39.0244ZM120.014 44.2275C119.589 44.2275 119.242 44.1998 118.974 44.1443C118.706 44.0795 118.47 43.95 118.266 43.7558C118.063 43.5615 117.905 43.2655 117.794 42.8678C117.73 42.5995 117.683 42.3266 117.656 42.0491C117.637 41.7624 117.623 41.3785 117.614 40.8975L117.6 40.3425L118.238 39.3019L118.322 40.9946C118.34 41.3831 118.396 41.6653 118.488 41.841C118.59 42.0168 118.752 42.137 118.974 42.2018C119.196 42.2573 119.543 42.285 120.014 42.285L120.153 42.4238V44.0888L120.014 44.2275ZM124.702 40.953C124.702 40.065 124.665 39.4036 124.591 38.9689C124.527 38.5249 124.365 38.1872 124.106 37.956C123.847 37.7247 123.435 37.6091 122.871 37.6091H122.33L122.163 39.6488C122.404 39.6673 122.718 39.6765 123.107 39.6765C123.717 39.6765 124.194 39.6441 124.536 39.5794C124.878 39.5054 125.059 39.4684 125.077 39.4684L125.271 41.1334C125.031 41.2166 124.675 41.2999 124.203 41.3831C123.731 41.4571 123.333 41.4941 123.01 41.4941C122.399 41.4941 121.9 41.3693 121.511 41.1195C121.123 40.8605 120.928 40.4165 120.928 39.7875C120.928 39.6488 120.933 39.5377 120.942 39.4545L121.345 35.8747H122.843C123.694 35.8747 124.346 36.0736 124.8 36.4713C125.253 36.8691 125.558 37.4056 125.715 38.0809C125.873 38.7561 125.947 39.5979 125.937 40.6061L124.702 42.3821V41.7855V40.953ZM120.013 42.285C121.141 42.285 122.099 42.2573 122.885 42.2018C123.671 42.1463 124.286 42.0445 124.73 41.8965V41.2999C124.73 41.1796 124.786 41.0316 124.897 40.8559C125.017 40.6801 125.151 40.5275 125.299 40.398C125.456 40.2685 125.59 40.2038 125.701 40.2038C125.859 40.2038 125.937 40.3379 125.937 40.6061C125.937 41.3184 125.886 41.8826 125.785 42.2989C125.692 42.7152 125.503 43.0528 125.216 43.3118C124.938 43.5615 124.527 43.7512 123.981 43.8807C123.037 44.1119 121.715 44.2275 120.013 44.2275V42.285ZM123.537 32.8361V34.5705H121.858V32.8361H123.537Z" fill="#2A2D53" fill-opacity="0.63"/>
</svg>
