<svg width="31" height="30" viewBox="0 0 31 30" fill="none" xmlns="http://www.w3.org/2000/svg">
<rect x="0.5" width="30" height="30" rx="10" fill="#E26D33"/>
<g clip-path="url(#clip0_242_40348)">
<path d="M21.25 8.25H10.75C10.1533 8.25 9.58097 8.48705 9.15901 8.90901C8.73705 9.33097 8.5 9.90326 8.5 10.5V21.75C8.50023 21.8829 8.53577 22.0133 8.60298 22.128C8.67018 22.2426 8.76665 22.3374 8.8825 22.4025C8.99459 22.466 9.12116 22.4996 9.25 22.5C9.38461 22.5 9.51673 22.4637 9.6325 22.395L13 20.355C13.1245 20.2809 13.2677 20.2444 13.4125 20.25H21.25C21.8467 20.25 22.419 20.0129 22.841 19.591C23.2629 19.169 23.5 18.5967 23.5 18V10.5C23.5 9.90326 23.2629 9.33097 22.841 8.90901C22.419 8.48705 21.8467 8.25 21.25 8.25ZM13 15C12.8517 15 12.7067 14.956 12.5833 14.8736C12.46 14.7912 12.3639 14.6741 12.3071 14.537C12.2503 14.4 12.2355 14.2492 12.2644 14.1037C12.2933 13.9582 12.3648 13.8246 12.4697 13.7197C12.5746 13.6148 12.7082 13.5433 12.8537 13.5144C12.9992 13.4855 13.15 13.5003 13.287 13.5571C13.4241 13.6139 13.5412 13.71 13.6236 13.8333C13.706 13.9567 13.75 14.1017 13.75 14.25C13.75 14.4489 13.671 14.6397 13.5303 14.7803C13.3897 14.921 13.1989 15 13 15ZM16 15C15.8517 15 15.7067 14.956 15.5833 14.8736C15.46 14.7912 15.3639 14.6741 15.3071 14.537C15.2503 14.4 15.2355 14.2492 15.2644 14.1037C15.2933 13.9582 15.3648 13.8246 15.4697 13.7197C15.5746 13.6148 15.7082 13.5433 15.8537 13.5144C15.9992 13.4855 16.15 13.5003 16.287 13.5571C16.4241 13.6139 16.5412 13.71 16.6236 13.8333C16.706 13.9567 16.75 14.1017 16.75 14.25C16.75 14.4489 16.671 14.6397 16.5303 14.7803C16.3897 14.921 16.1989 15 16 15ZM19 15C18.8517 15 18.7067 14.956 18.5833 14.8736C18.46 14.7912 18.3639 14.6741 18.3071 14.537C18.2503 14.4 18.2355 14.2492 18.2644 14.1037C18.2934 13.9582 18.3648 13.8246 18.4697 13.7197C18.5746 13.6148 18.7082 13.5433 18.8537 13.5144C18.9992 13.4855 19.15 13.5003 19.287 13.5571C19.4241 13.6139 19.5412 13.71 19.6236 13.8333C19.706 13.9567 19.75 14.1017 19.75 14.25C19.75 14.4489 19.671 14.6397 19.5303 14.7803C19.3897 14.921 19.1989 15 19 15Z" fill="white"/>
</g>
<defs>
<clipPath id="clip0_242_40348">
<rect width="18" height="18" fill="white" transform="translate(7 6)"/>
</clipPath>
</defs>
</svg>
