<svg width="12" height="18" viewBox="0 0 12 18" fill="none" xmlns="http://www.w3.org/2000/svg">
<path d="M5.94336 11.7227C7.59521 11.7227 8.70752 10.4858 8.70752 8.71777V3.16455C8.70752 1.38818 7.59521 0.159668 5.94336 0.159668C4.2832 0.159668 3.1709 1.38818 3.1709 3.16455V8.71777C3.1709 10.4858 4.2832 11.7227 5.94336 11.7227ZM0 8.85059C0 12.1045 2.1499 14.3872 5.3125 14.6528V16.5869H2.23291C1.88428 16.5869 1.60205 16.8691 1.60205 17.2178C1.60205 17.5664 1.88428 17.8403 2.23291 17.8403H9.64551C9.99414 17.8403 10.2764 17.5664 10.2764 17.2178C10.2764 16.8691 9.99414 16.5869 9.64551 16.5869H6.56592V14.6528C9.73682 14.3872 11.8784 12.1045 11.8784 8.85059V7.16553C11.8784 6.81689 11.6045 6.54297 11.2559 6.54297C10.9072 6.54297 10.625 6.81689 10.625 7.16553V8.80078C10.625 11.6313 8.78223 13.5073 5.94336 13.5073C3.09619 13.5073 1.25342 11.6313 1.25342 8.80078V7.16553C1.25342 6.81689 0.979492 6.54297 0.622559 6.54297C0.273926 6.54297 0 6.81689 0 7.16553V8.85059Z" fill="#3C3C43" fill-opacity="0.6"/>
</svg>
