<svg width="31" height="30" viewBox="0 0 31 30" fill="none" xmlns="http://www.w3.org/2000/svg">
<rect x="0.5" width="30" height="30" rx="10" fill="#007AFF"/>
<g clip-path="url(#clip0_242_40322)">
<path d="M23.4433 10.1508L20.8492 7.55667C20.3339 7.04079 19.6349 6.75064 18.9058 6.75H13.0942C12.3651 6.75064 11.6661 7.04079 11.1508 7.55667L8.55667 10.1508C8.04079 10.6661 7.75064 11.3651 7.75 12.0942V20.5C7.75 21.2293 8.03973 21.9288 8.55546 22.4445C9.07118 22.9603 9.77065 23.25 10.5 23.25H21.5C22.2293 23.25 22.9288 22.9603 23.4445 22.4445C23.9603 21.9288 24.25 21.2293 24.25 20.5V12.0942C24.2494 11.3651 23.9592 10.6661 23.4433 10.1508ZM16 18.6667C15.0275 18.6667 14.0949 18.2804 13.4073 17.5927C12.7196 16.9051 12.3333 15.9725 12.3333 15C12.3333 14.7569 12.4299 14.5237 12.6018 14.3518C12.7737 14.1799 13.0069 14.0833 13.25 14.0833C13.4931 14.0833 13.7263 14.1799 13.8982 14.3518C14.0701 14.5237 14.1667 14.7569 14.1667 15C14.1667 15.4862 14.3598 15.9525 14.7036 16.2964C15.0475 16.6402 15.5138 16.8333 16 16.8333C16.4862 16.8333 16.9525 16.6402 17.2964 16.2964C17.6402 15.9525 17.8333 15.4862 17.8333 15C17.8333 14.7569 17.9299 14.5237 18.1018 14.3518C18.2737 14.1799 18.5069 14.0833 18.75 14.0833C18.9931 14.0833 19.2263 14.1799 19.3982 14.3518C19.5701 14.5237 19.6667 14.7569 19.6667 15C19.6667 15.9725 19.2804 16.9051 18.5927 17.5927C17.9051 18.2804 16.9725 18.6667 16 18.6667ZM10.8758 10.4167L12.4433 8.84917C12.619 8.68166 12.8515 8.58671 13.0942 8.58333H18.9058C19.1485 8.58671 19.381 8.68166 19.5567 8.84917L21.1242 10.4167H10.8758Z" fill="white"/>
</g>
<defs>
<clipPath id="clip0_242_40322">
<rect width="22" height="22" fill="white" transform="translate(5 4)"/>
</clipPath>
</defs>
</svg>
