<svg width="31" height="30" viewBox="0 0 31 30" fill="none" xmlns="http://www.w3.org/2000/svg">
<rect x="0.5" width="30" height="30" rx="10" fill="#C344FF"/>
<g clip-path="url(#clip0_435_2445)">
<path d="M15.5 5.75C13.7694 5.75 12.0777 6.26318 10.6388 7.22464C9.19983 8.1861 8.07832 9.55267 7.41606 11.1515C6.75379 12.7504 6.58051 14.5097 6.91813 16.207C7.25575 17.9044 8.08911 19.4635 9.31282 20.6872C10.5365 21.9109 12.0956 22.7443 13.793 23.0819C15.4903 23.4195 17.2496 23.2462 18.8485 22.5839C20.4473 21.9217 21.8139 20.8002 22.7754 19.3612C23.7368 17.9223 24.25 16.2306 24.25 14.5C24.25 13.3509 24.0237 12.2131 23.584 11.1515C23.1442 10.0899 22.4997 9.12533 21.6872 8.31282C20.8747 7.5003 19.9101 6.85578 18.8485 6.41605C17.7869 5.97633 16.6491 5.75 15.5 5.75ZM15.5 19.75C15.3269 19.75 15.1578 19.6987 15.0139 19.6025C14.87 19.5064 14.7578 19.3697 14.6916 19.2098C14.6254 19.05 14.6081 18.874 14.6418 18.7043C14.6756 18.5346 14.7589 18.3787 14.8813 18.2563C15.0037 18.1339 15.1596 18.0506 15.3293 18.0168C15.499 17.9831 15.675 18.0004 15.8349 18.0666C15.9947 18.1328 16.1314 18.245 16.2275 18.3889C16.3237 18.5328 16.375 18.7019 16.375 18.875C16.375 19.1071 16.2828 19.3296 16.1187 19.4937C15.9546 19.6578 15.7321 19.75 15.5 19.75ZM16.375 15.235V16.25C16.375 16.4821 16.2828 16.7046 16.1187 16.8687C15.9546 17.0328 15.7321 17.125 15.5 17.125C15.2679 17.125 15.0454 17.0328 14.8813 16.8687C14.7172 16.7046 14.625 16.4821 14.625 16.25V14.5C14.625 14.2679 14.7172 14.0454 14.8813 13.8813C15.0454 13.7172 15.2679 13.625 15.5 13.625C15.7596 13.625 16.0134 13.548 16.2292 13.4038C16.445 13.2596 16.6133 13.0546 16.7126 12.8148C16.8119 12.5749 16.8379 12.311 16.7873 12.0564C16.7366 11.8018 16.6116 11.568 16.4281 11.3844C16.2445 11.2009 16.0107 11.0759 15.7561 11.0252C15.5015 10.9746 15.2376 11.0006 14.9977 11.0999C14.7579 11.1992 14.5529 11.3675 14.4087 11.5833C14.2645 11.7992 14.1875 12.0529 14.1875 12.3125C14.1875 12.5446 14.0953 12.7671 13.9312 12.9312C13.7671 13.0953 13.5446 13.1875 13.3125 13.1875C13.0804 13.1875 12.8579 13.0953 12.6938 12.9312C12.5297 12.7671 12.4375 12.5446 12.4375 12.3125C12.4352 11.744 12.5912 11.1861 12.888 10.7013C13.1848 10.2164 13.6107 9.82372 14.118 9.56719C14.6254 9.31066 15.1941 9.20041 15.7605 9.24877C16.3269 9.29713 16.8687 9.5022 17.3252 9.84102C17.7817 10.1798 18.1349 10.639 18.3452 11.1672C18.5555 11.6953 18.6147 12.2716 18.516 12.8315C18.4174 13.3914 18.1649 13.9127 17.7868 14.3372C17.4086 14.7617 16.9198 15.0726 16.375 15.235Z" fill="white"/>
</g>
<defs>
<clipPath id="clip0_435_2445">
<rect width="21" height="21" fill="white" transform="translate(5 4)"/>
</clipPath>
</defs>
</svg>
