<svg width="39" height="39" viewBox="0 0 39 39" fill="none" xmlns="http://www.w3.org/2000/svg">
<g clip-path="url(#clip0_242_44980)">
<path d="M32.695 10.9037L28.0963 6.305C27.1829 5.3905 25.9437 4.87614 24.6513 4.875H14.3488C13.0563 4.87614 11.8171 5.3905 10.9037 6.305L6.305 10.9037C5.3905 11.8171 4.87614 13.0563 4.875 14.3488V29.25C4.875 30.5429 5.38861 31.7829 6.30285 32.6971C7.21709 33.6114 8.45707 34.125 9.75 34.125H29.25C30.5429 34.125 31.7829 33.6114 32.6971 32.6971C33.6114 31.7829 34.125 30.5429 34.125 29.25V14.3488C34.1239 13.0563 33.6095 11.8171 32.695 10.9037ZM19.5 26C17.7761 26 16.1228 25.3152 14.9038 24.0962C13.6848 22.8772 13 21.2239 13 19.5C13 19.069 13.1712 18.6557 13.476 18.351C13.7807 18.0462 14.194 17.875 14.625 17.875C15.056 17.875 15.4693 18.0462 15.774 18.351C16.0788 18.6557 16.25 19.069 16.25 19.5C16.25 20.362 16.5924 21.1886 17.2019 21.7981C17.8114 22.4076 18.638 22.75 19.5 22.75C20.362 22.75 21.1886 22.4076 21.7981 21.7981C22.4076 21.1886 22.75 20.362 22.75 19.5C22.75 19.069 22.9212 18.6557 23.226 18.351C23.5307 18.0462 23.944 17.875 24.375 17.875C24.806 17.875 25.2193 18.0462 25.524 18.351C25.8288 18.6557 26 19.069 26 19.5C26 21.2239 25.3152 22.8772 24.0962 24.0962C22.8772 25.3152 21.2239 26 19.5 26ZM10.4162 11.375L13.195 8.59625C13.5064 8.29931 13.9185 8.13099 14.3488 8.125H24.6513C25.0815 8.13099 25.4936 8.29931 25.805 8.59625L28.5837 11.375H10.4162Z" fill="#007AFF"/>
</g>
<defs>
<clipPath id="clip0_242_44980">
<rect width="39" height="39" fill="white"/>
</clipPath>
</defs>
</svg>
