<svg width="31" height="32" viewBox="0 0 31 32" fill="none" xmlns="http://www.w3.org/2000/svg">
<g clip-path="url(#clip0_377_996)">
<path d="M23.25 12.6393C23.25 12.9818 23.3861 13.3104 23.6283 13.5526C23.8706 13.7948 24.1991 13.9309 24.5417 13.9309C24.8842 13.9309 25.2128 13.7948 25.455 13.5526C25.6973 13.3104 25.8333 12.9818 25.8333 12.6393V7.07218C25.8333 6.72961 25.6973 6.40107 25.455 6.15884C25.2128 5.9166 24.8842 5.78052 24.5417 5.78052H18.9875C18.6449 5.78052 18.3164 5.9166 18.0742 6.15884C17.8319 6.40107 17.6958 6.72961 17.6958 7.07218C17.6958 7.41476 17.8319 7.7433 18.0742 7.98553C18.3164 8.22776 18.6449 8.36385 18.9875 8.36385H21.4288L15.5 14.2926L7.95667 6.76218C7.70957 6.55058 7.39172 6.44 7.06664 6.45256C6.74156 6.46511 6.43319 6.59988 6.20315 6.82991C5.97311 7.05995 5.83835 7.36833 5.82579 7.69341C5.81324 8.01849 5.92381 8.33634 6.13542 8.58343L13.6658 16.1139L5.54125 24.2384C5.42019 24.3585 5.32409 24.5014 5.25852 24.6588C5.19294 24.8162 5.15918 24.985 5.15918 25.1555C5.15918 25.326 5.19294 25.4949 5.25852 25.6523C5.32409 25.8097 5.42019 25.9525 5.54125 26.0726C5.66133 26.1937 5.80419 26.2898 5.96159 26.3553C6.11899 26.4209 6.28782 26.4547 6.45834 26.4547C6.62885 26.4547 6.79768 26.4209 6.95508 26.3553C7.11248 26.2898 7.25534 26.1937 7.37542 26.0726L23.25 10.198V12.6393Z" fill="#131244"/>
<path d="M24.5418 18.2837C24.1993 18.2837 23.8707 18.4198 23.6285 18.662C23.3863 18.9043 23.2502 19.2328 23.2502 19.5754V22.0425L19.6593 18.4387C19.4161 18.1955 19.0862 18.0588 18.7423 18.0588C18.3983 18.0588 18.0684 18.1955 17.8252 18.4387C17.582 18.6819 17.4453 19.0118 17.4453 19.3558C17.4453 19.6998 17.582 20.0296 17.8252 20.2729L21.4031 23.8637H18.9748C18.6322 23.8637 18.3037 23.9998 18.0614 24.242C17.8192 24.4843 17.6831 24.8128 17.6831 25.1554C17.6831 25.4979 17.8192 25.8265 18.0614 26.0687C18.3037 26.311 18.6322 26.447 18.9748 26.447H24.5418C24.7241 26.4481 24.9046 26.4107 25.0713 26.3371C25.2381 26.2634 25.3873 26.1554 25.5093 26.02C25.6313 25.8845 25.7233 25.7248 25.7792 25.5513C25.8351 25.3778 25.8536 25.1945 25.8335 25.0133V19.5754C25.8335 19.2328 25.6974 18.9043 25.4552 18.662C25.213 18.4198 24.8844 18.2837 24.5418 18.2837Z" fill="#131244"/>
</g>
<defs>
<clipPath id="clip0_377_996">
<rect width="31" height="31" fill="white" transform="translate(0 0.61377)"/>
</clipPath>
</defs>
</svg>
