<svg width="25" height="24" viewBox="0 0 25 24" fill="none" xmlns="http://www.w3.org/2000/svg">
<g clip-path="url(#clip0_257_45703)">
<path d="M18.0183 21C17.8583 21.0006 17.7006 20.9629 17.5583 20.89L12.4583 18.22L7.35826 20.89C7.19265 20.977 7.00594 21.0159 6.81934 21.0022C6.63274 20.9884 6.45374 20.9226 6.30269 20.8122C6.15164 20.7017 6.0346 20.5511 5.96487 20.3775C5.89515 20.2039 5.87553 20.0142 5.90826 19.83L6.90826 14.2L2.78826 10.2C2.65972 10.0717 2.56853 9.91083 2.52449 9.73465C2.48044 9.55848 2.4852 9.37363 2.53826 9.19996C2.59622 9.02223 2.70284 8.86431 2.84601 8.74412C2.98918 8.62392 3.16318 8.54627 3.34826 8.51996L9.04826 7.68996L11.5583 2.55996C11.6401 2.39089 11.768 2.2483 11.9272 2.14853C12.0863 2.04876 12.2704 1.99585 12.4583 1.99585C12.6461 1.99585 12.8302 2.04876 12.9893 2.14853C13.1485 2.2483 13.2764 2.39089 13.3583 2.55996L15.8983 7.67996L21.5983 8.50996C21.7833 8.53627 21.9573 8.61392 22.1005 8.73412C22.2437 8.85431 22.3503 9.01223 22.4083 9.18996C22.4613 9.36363 22.4661 9.54848 22.422 9.72465C22.378 9.90083 22.2868 10.0617 22.1583 10.19L18.0383 14.19L19.0383 19.82C19.074 20.0074 19.0553 20.2012 18.9844 20.3784C18.9135 20.5556 18.7934 20.7088 18.6383 20.82C18.4572 20.9469 18.2391 21.0102 18.0183 21Z" fill="#FFA722"/>
</g>
<defs>
<clipPath id="clip0_257_45703">
<rect width="24" height="24" fill="white" transform="translate(0.458496)"/>
</clipPath>
</defs>
</svg>
