<svg width="20" height="18" viewBox="0 0 20 18" fill="none" xmlns="http://www.w3.org/2000/svg">
<g clip-path="url(#clip0_257_46220)">
<path d="M15.4045 1.35913H13.171C12.8139 1.35913 12.5244 1.64861 12.5244 2.00569C12.5244 2.36278 12.8139 2.65225 13.171 2.65225H15.4045C15.7616 2.65225 16.0511 2.36278 16.0511 2.00569C16.0511 1.64861 15.7616 1.35913 15.4045 1.35913Z" fill="#007AFF"/>
<path d="M19.4932 4.23938C19.4736 3.88671 19.4148 3.42383 19.3169 2.85075C19.2597 2.51767 19.201 2.205 19.1405 1.91275C19.0728 1.5862 18.7462 1.38374 18.4246 1.46864C18.1274 1.54702 17.9429 1.84254 18.0033 2.14296C18.0638 2.44338 18.1209 2.7438 18.178 3.06382C18.2711 3.58302 18.3274 3.98468 18.347 4.26877C18.3666 4.62144 18.2613 4.89574 18.0311 5.09166C17.8009 5.28759 17.4017 5.38555 16.8335 5.38555H5.79219V3.9161C5.79219 3.28913 5.67953 2.73319 5.45421 2.24827C5.2289 1.76335 4.90562 1.38374 4.48438 1.10945C4.06313 0.835147 3.57331 0.697998 3.01492 0.697998C2.48592 0.697998 2.01324 0.840045 1.5969 1.12414C1.18055 1.40823 0.857274 1.79519 0.62706 2.28501C0.396845 2.77483 0.281738 3.31852 0.281738 3.9161C0.281738 4.79777 0.533994 5.48352 1.03851 5.97334C1.54302 6.46315 2.20672 6.70806 3.02962 6.70806H4.61663V6.79623C4.61663 7.03134 4.52356 7.21747 4.33743 7.35462C4.1513 7.49177 3.877 7.60933 3.51454 7.70729C3.15207 7.80525 2.5447 7.9424 1.69241 8.11874L1.67282 8.12282C1.32097 8.19303 1.09565 8.53916 1.17402 8.88938C1.24994 9.22899 1.58302 9.44533 1.92344 9.37757C2.06223 9.34981 2.20019 9.32206 2.33897 9.2943C3.25983 9.10817 3.95782 8.92204 4.43294 8.73591C4.90807 8.54978 5.25339 8.30732 5.46891 8.00853C5.68443 7.70974 5.79219 7.30564 5.79219 6.79623V6.70806H16.8335C17.4311 6.70806 17.9331 6.59051 18.3397 6.35539C18.7462 6.12028 19.045 5.81415 19.2361 5.43699C19.4271 5.05983 19.5128 4.66062 19.4932 4.23938ZM4.64601 5.38555H3.02962C2.47122 5.38555 2.06468 5.27535 1.80997 5.05493C1.55526 4.83451 1.42791 4.4549 1.42791 3.9161C1.42791 3.33812 1.56751 2.87524 1.84671 2.52747C2.1259 2.1797 2.51531 2.00581 3.01492 2.00581C3.55372 2.00581 3.96027 2.1748 4.23457 2.51277C4.50887 2.85075 4.64601 3.31852 4.64601 3.9161V5.38555Z" fill="#007AFF"/>
<path d="M5.38059 12.7252C5.38059 12.3194 5.05164 11.9905 4.64586 11.9905C4.24008 11.9905 3.91113 12.3194 3.91113 12.7252C3.91113 13.131 4.24008 13.4599 4.64586 13.4599C5.05164 13.4599 5.38059 13.131 5.38059 12.7252Z" fill="#007AFF"/>
<path d="M19.0468 12.2624C18.8313 11.7579 18.5276 11.3571 18.1358 11.0574C17.7439 10.7587 17.2933 10.6093 16.7839 10.6093C16.1471 10.6093 15.6034 10.8281 15.1528 11.2632C14.7022 11.6991 14.3691 12.2991 14.1536 13.0633L13.6833 14.7531C13.6343 14.9588 13.5388 15.1131 13.3968 15.216C13.2547 15.3189 13.0662 15.3703 12.831 15.3703C12.3902 15.3703 12.0743 15.3246 11.8832 15.2307C11.6922 15.1376 11.5649 14.9735 11.5012 14.7384C11.4375 14.5033 11.4057 14.1213 11.4057 13.5923L11.391 9.81576C11.391 9.4435 11.3273 9.11614 11.2 8.83123C11.0726 8.54713 10.8718 8.32427 10.5975 8.16263C10.3232 8.00099 9.97541 7.92017 9.55416 7.92017H9.06925C8.63821 7.92017 8.28309 8.00099 8.00389 8.16263C7.72469 8.32427 7.52387 8.54468 7.40142 8.82388C7.27896 9.10308 7.21773 9.4337 7.21773 9.81576L7.23243 13.9155C7.23243 14.4837 7.15406 14.9319 6.99732 15.2601C6.84057 15.5891 6.57607 15.8283 6.20381 15.9801C5.83155 16.1328 5.31234 16.2079 4.64619 16.2079H4.4323C3.82493 16.2079 3.32531 16.0813 2.93346 15.8258C2.54161 15.5711 2.25261 15.2217 2.06648 14.7752C1.88035 14.3294 1.78729 13.8184 1.78729 13.2396C1.78729 13.0347 1.81913 12.7563 1.85831 12.4918C1.91627 12.0983 1.57177 11.7644 1.17991 11.833C0.928473 11.8771 0.736628 12.0795 0.702341 12.3326C0.661522 12.6306 0.641113 12.9326 0.641113 13.2396C0.641113 13.9841 0.78561 14.6854 1.0746 15.3409C1.36359 15.9973 1.79219 16.5263 2.36037 16.9279C2.92856 17.3304 3.61921 17.5304 4.4323 17.5304H4.64619C5.51807 17.5304 6.23075 17.3834 6.78425 17.0896C7.33774 16.7957 7.74429 16.3793 8.00389 15.8405C8.26349 15.3025 8.3884 14.6601 8.3786 13.9155L8.36391 9.81576C8.36391 9.59045 8.41044 9.43942 8.50351 9.36023C8.59657 9.28186 8.78515 9.24267 9.06925 9.24267H9.55416C9.81867 9.24267 9.9999 9.28676 10.0979 9.37493C10.1958 9.46309 10.2448 9.61004 10.2448 9.81576L10.2595 13.5923C10.2595 14.2592 10.3354 14.8176 10.4873 15.2674C10.6391 15.7181 10.9012 16.0683 11.2734 16.3181C11.6457 16.5679 12.1649 16.6928 12.831 16.6928C13.1151 16.6928 13.3894 16.6291 13.6539 16.5018C13.9184 16.3752 14.1487 16.1989 14.3446 15.9728L14.4034 16.0022C15.1675 16.394 15.7357 16.6618 16.1079 16.803C16.4802 16.9451 16.8524 17.0161 17.2247 17.0161C17.597 17.0161 17.9325 16.9116 18.2607 16.7002C18.5889 16.4895 18.8558 16.1516 19.0615 15.6862C19.2673 15.2217 19.3701 14.6266 19.3701 13.9008C19.3701 13.3131 19.2624 12.7677 19.0468 12.2624ZM17.9741 15.3189C17.8076 15.5687 17.5578 15.6936 17.2247 15.6936C16.97 15.6936 16.7006 15.6372 16.4165 15.5246C16.1324 15.4127 15.6573 15.1891 14.9911 14.856L14.8883 14.7972L15.2703 13.4159C15.4075 12.9163 15.6059 12.544 15.8655 12.2991C16.1251 12.055 16.4312 11.9318 16.7839 11.9318C17.2541 11.9318 17.6117 12.1065 17.8566 12.4534C18.1015 12.8012 18.2239 13.2837 18.2239 13.9008C18.2239 14.5972 18.1407 15.0691 17.9741 15.3189Z" fill="#007AFF"/>
</g>
<defs>
<clipPath id="clip0_257_46220">
<rect width="19.2139" height="16.8326" fill="white" transform="translate(0.281738 0.697998)"/>
</clipPath>
</defs>
</svg>
